<?xml version="1.0" encoding="UTF-8" standalone="no" ?>
<!DOCTYPE svg PUBLIC "-//W3C//DTD SVG 1.1//EN" "http://www.w3.org/Graphics/SVG/1.1/DTD/svg11.dtd">
<svg xmlns="http://www.w3.org/2000/svg" xmlns:xlink="http://www.w3.org/1999/xlink" version="1.1" width="500" height="500" viewBox="0 0 500 500" xml:space="preserve">
<desc>Created with Fabric.js 3.6.3</desc>
<defs>
</defs>
<g transform="matrix(1,0,0,1,211.89500000000004,260.18510791418487)" style=""  ><path fill="#000000" opacity="1" d="M-90.79 13.83L-90.79 13.83Q-91.49 13.83-92.00 13.32Q-92.51 12.82-92.51 12.11L-92.51 12.11L-92.51-20.55L-89.07-20.55L-89.07 12.11Q-89.07 12.82-89.56 13.32Q-90.04 13.83-90.79 13.83ZM-78.59-17.43L-102.94-17.43Q-103.64-17.43-104.08-17.87Q-104.52-18.31-104.52-18.97L-104.52-18.97Q-104.52-19.67-104.08-20.11Q-103.64-20.55-102.94-20.55L-102.94-20.55L-78.59-20.55Q-77.89-20.55-77.45-20.11Q-77.01-19.67-77.01-18.97L-77.01-18.97Q-77.01-18.31-77.45-17.87Q-77.89-17.43-78.59-17.43L-78.59-17.43Z"/><path fill="#000000" opacity="1" d="M-51.74 13.83L-51.74 13.83Q-52.49 13.83-52.97 13.35Q-53.46 12.86-53.46 12.16L-53.46 12.16L-53.46 0.71Q-53.46-2.02-54.49-3.78Q-55.52-5.54-57.31-6.42Q-59.09-7.30-61.34-7.30L-61.34-7.30Q-63.49-7.30-65.23-6.47Q-66.97-5.63-67.98-4.18Q-69.00-2.72-69.00-0.87L-69.00-0.87L-71.42-0.87Q-71.33-3.65-69.92-5.83Q-68.51-8.01-66.18-9.26Q-63.85-10.52-60.98-10.52L-60.98-10.52Q-57.86-10.52-55.39-9.22Q-52.93-7.92-51.50-5.41Q-50.07-2.90-50.07 0.71L-50.07 0.71L-50.07 12.16Q-50.07 12.86-50.55 13.35Q-51.03 13.83-51.74 13.83ZM-70.67 13.83L-70.67 13.83Q-71.46 13.83-71.92 13.37Q-72.39 12.91-72.39 12.16L-72.39 12.16L-72.39-8.53Q-72.39-9.33-71.92-9.79Q-71.46-10.25-70.67-10.25L-70.67-10.25Q-69.92-10.25-69.46-9.79Q-69.00-9.33-69.00-8.53L-69.00-8.53L-69.00 12.16Q-69.00 12.91-69.46 13.37Q-69.92 13.83-70.67 13.83ZM-70.67 4.01L-70.67 4.01Q-71.46 4.01-71.92 3.53Q-72.39 3.04-72.39 2.30L-72.39 2.30L-72.39-18.84Q-72.39-19.63-71.92-20.09Q-71.46-20.55-70.67-20.55L-70.67-20.55Q-69.92-20.55-69.46-20.09Q-69.00-19.63-69.00-18.84L-69.00-18.84L-69.00 2.30Q-69.00 3.04-69.46 3.53Q-69.92 4.01-70.67 4.01Z"/><path fill="#000000" opacity="1" d="M-39.24-1.01L-41.17-1.01Q-41.04-3.74-39.74-5.89Q-38.44-8.05-36.35-9.28Q-34.26-10.52-31.71-10.52L-31.71-10.52Q-29.68-10.52-28.58-9.94Q-27.48-9.37-27.75-8.27L-27.75-8.27Q-27.92-7.61-28.34-7.39Q-28.76-7.17-29.35-7.21Q-29.95-7.26-30.69-7.30L-30.69-7.30Q-33.16-7.52-35.08-6.80Q-36.99-6.07-38.11-4.57Q-39.24-3.08-39.24-1.01L-39.24-1.01ZM-40.91 13.83L-40.91 13.83Q-41.70 13.83-42.14 13.39Q-42.58 12.95-42.58 12.16L-42.58 12.16L-42.58-8.58Q-42.58-9.37-42.14-9.81Q-41.70-10.25-40.91-10.25L-40.91-10.25Q-40.12-10.25-39.68-9.81Q-39.24-9.37-39.24-8.58L-39.24-8.58L-39.24 12.16Q-39.24 12.95-39.68 13.39Q-40.12 13.83-40.91 13.83Z"/><path fill="#000000" opacity="1" d="M-13.26 14.05L-13.26 14.05Q-16.83 14.05-19.58 12.49Q-22.33 10.92-23.89 8.15Q-25.46 5.38-25.46 1.81L-25.46 1.81Q-25.46-1.80-23.98-4.55Q-22.51-7.30-19.91-8.89Q-17.31-10.47-13.92-10.47L-13.92-10.47Q-10.58-10.47-8.09-8.95Q-5.60-7.43-4.24-4.75Q-2.87-2.06-2.87 1.37L-2.87 1.37Q-2.87 2.08-3.31 2.49Q-3.75 2.91-4.46 2.91L-4.46 2.91L-23.17 2.91L-23.17 0.09L-4.10 0.09L-6.00 1.46Q-5.95-1.09-6.92-3.12Q-7.89-5.14-9.67-6.29Q-11.46-7.43-13.92-7.43L-13.92-7.43Q-16.43-7.43-18.32-6.25Q-20.22-5.06-21.25-2.97Q-22.29-0.87-22.29 1.81L-22.29 1.81Q-22.29 4.50-21.12 6.57Q-19.95 8.64-17.93 9.82Q-15.90 11.01-13.26 11.01L-13.26 11.01Q-11.68 11.01-10.07 10.46Q-8.46 9.91-7.49 9.08L-7.49 9.08Q-7.01 8.68-6.39 8.66Q-5.78 8.64-5.34 8.99L-5.34 8.99Q-4.76 9.52-4.74 10.13Q-4.72 10.75-5.25 11.19L-5.25 11.19Q-6.70 12.42-8.95 13.24Q-11.19 14.05-13.26 14.05Z"/><path fill="#000000" opacity="1" d="M12.89 14.05L12.89 14.05Q9.32 14.05 6.57 12.49Q3.82 10.92 2.26 8.15Q0.70 5.38 0.70 1.81L0.70 1.81Q0.70-1.80 2.17-4.55Q3.64-7.30 6.24-8.89Q8.84-10.47 12.23-10.47L12.23-10.47Q15.58-10.47 18.06-8.95Q20.55-7.43 21.92-4.75Q23.28-2.06 23.28 1.37L23.28 1.37Q23.28 2.08 22.84 2.49Q22.40 2.91 21.69 2.91L21.69 2.91L2.98 2.91L2.98 0.09L22.05 0.09L20.15 1.46Q20.20-1.09 19.23-3.12Q18.26-5.14 16.48-6.29Q14.69-7.43 12.23-7.43L12.23-7.43Q9.72-7.43 7.83-6.25Q5.93-5.06 4.90-2.97Q3.86-0.87 3.86 1.81L3.86 1.81Q3.86 4.50 5.03 6.57Q6.20 8.64 8.22 9.82Q10.25 11.01 12.89 11.01L12.89 11.01Q14.47 11.01 16.08 10.46Q17.69 9.91 18.66 9.08L18.66 9.08Q19.14 8.68 19.76 8.66Q20.37 8.64 20.81 8.99L20.81 8.99Q21.39 9.52 21.41 10.13Q21.43 10.75 20.90 11.19L20.90 11.19Q19.45 12.42 17.20 13.24Q14.96 14.05 12.89 14.05Z"/><path fill="#000000" opacity="1" d="M44.90 14.27L44.90 14.27Q41.33 14.27 38.23 12.91Q35.12 11.54 32.77 9.10Q30.41 6.65 29.09 3.46Q27.77 0.27 27.77-3.38L27.77-3.38Q27.77-6.99 29.07-10.19Q30.37-13.38 32.72-15.80Q35.08-18.22 38.18-19.61Q41.29-20.99 44.90-20.99L44.90-20.99Q48.07-20.99 50.66-20.07Q53.26-19.14 55.68-17.12L55.68-17.12Q56.08-16.81 56.14-16.39Q56.21-15.97 56.03-15.60Q55.86-15.23 55.51-15.05L55.51-15.05Q55.42-14.70 55.07-14.52Q54.71-14.35 54.25-14.39Q53.79-14.43 53.35-14.79L53.35-14.79Q51.63-16.28 49.61-17.01Q47.58-17.74 44.90-17.74L44.90-17.74Q42.03-17.74 39.55-16.59Q37.06-15.45 35.17-13.47Q33.27-11.48 32.19-8.89Q31.12-6.29 31.12-3.38L31.12-3.38Q31.12-0.39 32.19 2.21Q33.27 4.80 35.17 6.79Q37.06 8.77 39.55 9.89Q42.03 11.01 44.90 11.01L44.90 11.01Q47.32 11.01 49.47 10.22Q51.63 9.43 53.57 7.93L53.57 7.93Q54.10 7.49 54.69 7.58Q55.29 7.67 55.73 8.11Q56.17 8.55 56.17 9.25L56.17 9.25Q56.17 9.60 56.06 9.89Q55.95 10.18 55.68 10.48L55.68 10.48Q53.44 12.55 50.66 13.41Q47.89 14.27 44.90 14.27Z"/><path fill="#000000" opacity="1" d="M72.15 14.05L72.15 14.05Q68.63 14.05 65.85 12.47Q63.08 10.88 61.49 8.11Q59.91 5.33 59.91 1.81L59.91 1.81Q59.91-1.75 61.49-4.53Q63.08-7.30 65.85-8.89Q68.63-10.47 72.15-10.47L72.15-10.47Q75.67-10.47 78.42-8.89Q81.17-7.30 82.76-4.53Q84.34-1.75 84.39 1.81L84.39 1.81Q84.39 5.33 82.78 8.11Q81.17 10.88 78.42 12.47Q75.67 14.05 72.15 14.05ZM72.15 10.97L72.15 10.97Q74.70 10.97 76.73 9.78Q78.75 8.59 79.90 6.52Q81.04 4.45 81.04 1.81L81.04 1.81Q81.04-0.83 79.90-2.92Q78.75-5.01 76.73-6.20Q74.70-7.39 72.15-7.39L72.15-7.39Q69.59-7.39 67.57-6.20Q65.54-5.01 64.38-2.92Q63.21-0.83 63.21 1.81L63.21 1.81Q63.21 4.45 64.38 6.52Q65.54 8.59 67.57 9.78Q69.59 10.97 72.15 10.97Z"/><path fill="#000000" opacity="1" d="M101.95 14.05L101.95 14.05Q98.47 14.05 95.70 12.44Q92.93 10.84 91.32 8.06Q89.71 5.29 89.71 1.77L89.71 1.77Q89.71-1.71 91.28-4.48Q92.84-7.26 95.52-8.86Q98.21-10.47 101.60-10.47L101.60-10.47Q104.55-10.47 106.93-9.22Q109.30-7.96 110.76-5.89L110.76-5.89L110.76-18.84Q110.76-19.63 111.24-20.09Q111.73-20.55 112.47-20.55L112.47-20.55Q113.22-20.55 113.71-20.09Q114.19-19.63 114.19-18.84L114.19-18.84L114.19 1.94Q114.10 5.38 112.50 8.13Q110.89 10.88 108.14 12.47Q105.39 14.05 101.95 14.05ZM101.95 10.97L101.95 10.97Q104.51 10.97 106.51 9.76Q108.51 8.55 109.68 6.48Q110.85 4.41 110.85 1.77L110.85 1.77Q110.85-0.83 109.68-2.92Q108.51-5.01 106.51-6.20Q104.51-7.39 101.95-7.39L101.95-7.39Q99.44-7.39 97.42-6.20Q95.39-5.01 94.20-2.92Q93.02-0.83 93.02 1.77L93.02 1.77Q93.02 4.41 94.20 6.48Q95.39 8.55 97.42 9.76Q99.44 10.97 101.95 10.97Z"/><path fill="#000000" opacity="1" d="M133.03 14.05L133.03 14.05Q129.47 14.05 126.72 12.49Q123.96 10.92 122.40 8.15Q120.84 5.38 120.84 1.81L120.84 1.81Q120.84-1.80 122.31-4.55Q123.79-7.30 126.39-8.89Q128.98-10.47 132.37-10.47L132.37-10.47Q135.72-10.47 138.21-8.95Q140.69-7.43 142.06-4.75Q143.42-2.06 143.42 1.37L143.42 1.37Q143.42 2.08 142.98 2.49Q142.54 2.91 141.84 2.91L141.84 2.91L123.13 2.91L123.13 0.09L142.19 0.09L140.30 1.46Q140.34-1.09 139.37-3.12Q138.41-5.14 136.62-6.29Q134.84-7.43 132.37-7.43L132.37-7.43Q129.86-7.43 127.97-6.25Q126.08-5.06 125.04-2.97Q124.01-0.87 124.01 1.81L124.01 1.81Q124.01 4.50 125.18 6.57Q126.34 8.64 128.37 9.82Q130.39 11.01 133.03 11.01L133.03 11.01Q134.62 11.01 136.23 10.46Q137.83 9.91 138.80 9.08L138.80 9.08Q139.29 8.68 139.90 8.66Q140.52 8.64 140.96 8.99L140.96 8.99Q141.53 9.52 141.55 10.13Q141.57 10.75 141.05 11.19L141.05 11.19Q139.59 12.42 137.35 13.24Q135.10 14.05 133.03 14.05Z"/></g>
<g transform="matrix(1,0,0,1,266.94915605989485,303.12)" style=""  ><path fill="#000000" opacity="1" d="M-73.33 6.28L-73.33 6.28Q-73.83 6.28-74.05 5.78L-74.05 5.78L-79.99-8.12Q-80.21-8.68-80.02-9.01Q-79.83-9.34-79.35-9.34L-79.35-9.34Q-78.85-9.34-78.63-8.84L-78.63-8.84L-73.11 4.36L-73.55 4.36L-68.05-8.80Q-67.93-9.10-67.75-9.22Q-67.57-9.34-67.27-9.34L-67.27-9.34Q-66.81-9.34-66.65-8.99Q-66.49-8.64-66.67-8.20L-66.67-8.20L-72.63 5.78Q-72.75 6.06-72.93 6.17Q-73.11 6.28-73.33 6.28Z"/><path fill="#000000" opacity="1" d="M-61.61 6.38L-61.61 6.38Q-63.21 6.38-64.47 5.66Q-65.73 4.94-66.45 3.68Q-67.17 2.42-67.17 0.82L-67.17 0.82Q-67.17-0.80-66.45-2.06Q-65.73-3.32-64.47-4.04Q-63.21-4.76-61.61-4.76L-61.61-4.76Q-60.01-4.76-58.76-4.04Q-57.51-3.32-56.79-2.06Q-56.07-0.80-56.05 0.82L-56.05 0.82Q-56.05 2.42-56.78 3.68Q-57.51 4.94-58.76 5.66Q-60.01 6.38-61.61 6.38ZM-61.61 4.98L-61.61 4.98Q-60.45 4.98-59.53 4.44Q-58.61 3.90-58.09 2.96Q-57.57 2.02-57.57 0.82L-57.57 0.82Q-57.57-0.38-58.09-1.33Q-58.61-2.28-59.53-2.82Q-60.45-3.36-61.61-3.36L-61.61-3.36Q-62.77-3.36-63.69-2.82Q-64.61-2.28-65.14-1.33Q-65.67-0.38-65.67 0.82L-65.67 0.82Q-65.67 2.02-65.14 2.96Q-64.61 3.90-63.69 4.44Q-62.77 4.98-61.61 4.98Z"/><path fill="#000000" opacity="1" d="M-48.17 6.38L-48.17 6.38Q-49.75 6.38-50.98 5.65Q-52.21 4.92-52.92 3.66Q-53.63 2.40-53.63 0.82L-53.63 0.82Q-53.63-0.78-52.95-2.04Q-52.27-3.30-51.09-4.03Q-49.91-4.76-48.37-4.76L-48.37-4.76Q-47.15-4.76-46.12-4.28Q-45.09-3.80-44.31-2.84L-44.31-2.84Q-44.09-2.60-44.15-2.33Q-44.21-2.06-44.49-1.86L-44.49-1.86Q-44.71-1.70-44.98-1.75Q-45.25-1.80-45.45-2.04L-45.45-2.04Q-46.61-3.36-48.37-3.36L-48.37-3.36Q-49.49-3.36-50.34-2.82Q-51.19-2.28-51.66-1.34Q-52.13-0.40-52.13 0.82L-52.13 0.82Q-52.13 2.02-51.63 2.96Q-51.13 3.90-50.23 4.44Q-49.33 4.98-48.17 4.98L-48.17 4.98Q-47.39 4.98-46.74 4.77Q-46.09 4.56-45.59 4.12L-45.59 4.12Q-45.35 3.92-45.09 3.90Q-44.83 3.88-44.61 4.06L-44.61 4.06Q-44.37 4.28-44.34 4.56Q-44.31 4.84-44.53 5.04L-44.53 5.04Q-45.99 6.38-48.17 6.38Z"/><path fill="#000000" opacity="1" d="M-36.17 6.38L-36.17 6.38Q-37.79 6.38-39.04 5.67Q-40.29 4.96-41.00 3.70Q-41.71 2.44-41.71 0.82L-41.71 0.82Q-41.71-0.82-41.04-2.07Q-40.37-3.32-39.19-4.04Q-38.01-4.76-36.47-4.76L-36.47-4.76Q-34.95-4.76-33.82-4.07Q-32.69-3.38-32.07-2.16Q-31.45-0.94-31.45 0.62L-31.45 0.62Q-31.45 0.94-31.65 1.13Q-31.85 1.32-32.17 1.32L-32.17 1.32L-40.67 1.32L-40.67 0.04L-32.01 0.04L-32.87 0.66Q-32.85-0.50-33.29-1.42Q-33.73-2.34-34.54-2.86Q-35.35-3.38-36.47-3.38L-36.47-3.38Q-37.61-3.38-38.47-2.84Q-39.33-2.30-39.80-1.35Q-40.27-0.40-40.27 0.82L-40.27 0.82Q-40.27 2.04-39.74 2.98Q-39.21 3.92-38.29 4.46Q-37.37 5.00-36.17 5.00L-36.17 5.00Q-35.45 5.00-34.72 4.75Q-33.99 4.50-33.55 4.12L-33.55 4.12Q-33.33 3.94-33.05 3.93Q-32.77 3.92-32.57 4.08L-32.57 4.08Q-32.31 4.32-32.30 4.60Q-32.29 4.88-32.53 5.08L-32.53 5.08Q-33.19 5.64-34.21 6.01Q-35.23 6.38-36.17 6.38ZM-38.89-6.40L-38.89-6.40Q-39.23-6.40-39.46-6.59Q-39.69-6.78-39.69-7.10L-39.69-7.10Q-39.69-7.52-39.31-7.78L-39.31-7.78L-36.95-9.34Q-36.79-9.44-36.57-9.44L-36.57-9.44Q-36.45-9.44-36.35-9.41Q-36.25-9.38-36.17-9.34L-36.17-9.34L-33.83-7.78Q-33.45-7.52-33.45-7.10L-33.45-7.10Q-33.45-6.80-33.67-6.60Q-33.89-6.40-34.23-6.40L-34.23-6.40Q-34.37-6.40-34.48-6.44Q-34.59-6.48-34.71-6.56L-34.71-6.56L-36.57-7.84L-38.43-6.56Q-38.65-6.40-38.89-6.40Z"/><path fill="#000000" opacity="1" d=""/><path fill="#000000" opacity="1" d="M-15.77 6.48L-15.77 6.48Q-17.39 6.48-18.80 5.86Q-20.21 5.24-21.28 4.13Q-22.35 3.02-22.95 1.57Q-23.55 0.12-23.55-1.54L-23.55-1.54Q-23.55-3.18-22.96-4.63Q-22.37-6.08-21.30-7.18Q-20.23-8.28-18.82-8.91Q-17.41-9.54-15.77-9.54L-15.77-9.54Q-14.33-9.54-13.15-9.12Q-11.97-8.70-10.87-7.78L-10.87-7.78Q-10.69-7.64-10.66-7.45Q-10.63-7.26-10.71-7.09Q-10.79-6.92-10.95-6.84L-10.95-6.84Q-10.99-6.68-11.15-6.60Q-11.31-6.52-11.52-6.54Q-11.73-6.56-11.93-6.72L-11.93-6.72Q-12.71-7.40-13.63-7.73Q-14.55-8.06-15.77-8.06L-15.77-8.06Q-17.07-8.06-18.20-7.54Q-19.33-7.02-20.19-6.12Q-21.05-5.22-21.54-4.04Q-22.03-2.86-22.03-1.54L-22.03-1.54Q-22.03-0.18-21.54 1.00Q-21.05 2.18-20.19 3.08Q-19.33 3.98-18.20 4.49Q-17.07 5.00-15.77 5.00L-15.77 5.00Q-14.67 5.00-13.69 4.64Q-12.71 4.28-11.83 3.60L-11.83 3.60Q-11.59 3.40-11.32 3.44Q-11.05 3.48-10.85 3.68Q-10.65 3.88-10.65 4.20L-10.65 4.20Q-10.65 4.36-10.70 4.49Q-10.75 4.62-10.87 4.76L-10.87 4.76Q-11.89 5.70-13.15 6.09Q-14.41 6.48-15.77 6.48Z"/><path fill="#000000" opacity="1" d="M-3.39 6.38L-3.39 6.38Q-4.99 6.38-6.25 5.66Q-7.51 4.94-8.23 3.68Q-8.95 2.42-8.95 0.82L-8.95 0.82Q-8.95-0.80-8.23-2.06Q-7.51-3.32-6.25-4.04Q-4.99-4.76-3.39-4.76L-3.39-4.76Q-1.79-4.76-0.54-4.04Q0.71-3.32 1.43-2.06Q2.15-0.80 2.17 0.82L2.17 0.82Q2.17 2.42 1.44 3.68Q0.71 4.94-0.54 5.66Q-1.79 6.38-3.39 6.38ZM-3.39 4.98L-3.39 4.98Q-2.23 4.98-1.31 4.44Q-0.39 3.90 0.13 2.96Q0.65 2.02 0.65 0.82L0.65 0.82Q0.65-0.38 0.13-1.33Q-0.39-2.28-1.31-2.82Q-2.23-3.36-3.39-3.36L-3.39-3.36Q-4.55-3.36-5.47-2.82Q-6.39-2.28-6.92-1.33Q-7.45-0.38-7.45 0.82L-7.45 0.82Q-7.45 2.02-6.92 2.96Q-6.39 3.90-5.47 4.44Q-4.55 4.98-3.39 4.98Z"/><path fill="#000000" opacity="1" d="M14.55 6.28L14.55 6.28Q14.21 6.28 13.99 6.06Q13.77 5.84 13.77 5.52L13.77 5.52L13.77 0.32Q13.77-0.92 13.30-1.72Q12.83-2.52 12.02-2.92Q11.21-3.32 10.19-3.32L10.19-3.32Q9.21-3.32 8.42-2.94Q7.63-2.56 7.17-1.90Q6.71-1.24 6.71-0.40L6.71-0.40L5.61-0.40Q5.65-1.66 6.29-2.65Q6.93-3.64 7.99-4.21Q9.05-4.78 10.35-4.78L10.35-4.78Q11.77-4.78 12.89-4.19Q14.01-3.60 14.66-2.46Q15.31-1.32 15.31 0.32L15.31 0.32L15.31 5.52Q15.31 5.84 15.09 6.06Q14.87 6.28 14.55 6.28ZM5.95 6.28L5.95 6.28Q5.59 6.28 5.38 6.07Q5.17 5.86 5.17 5.52L5.17 5.52L5.17-3.88Q5.17-4.24 5.38-4.45Q5.59-4.66 5.95-4.66L5.95-4.66Q6.29-4.66 6.50-4.45Q6.71-4.24 6.71-3.88L6.71-3.88L6.71 5.52Q6.71 5.86 6.50 6.07Q6.29 6.28 5.95 6.28Z"/><path fill="#000000" opacity="1" d="M23.67 6.38L23.67 6.38Q22.05 6.38 20.80 5.67Q19.55 4.96 18.84 3.70Q18.13 2.44 18.13 0.82L18.13 0.82Q18.13-0.82 18.80-2.07Q19.47-3.32 20.65-4.04Q21.83-4.76 23.37-4.76L23.37-4.76Q24.89-4.76 26.02-4.07Q27.15-3.38 27.77-2.16Q28.39-0.94 28.39 0.62L28.39 0.62Q28.39 0.94 28.19 1.13Q27.99 1.32 27.67 1.32L27.67 1.32L19.17 1.32L19.17 0.04L27.83 0.04L26.97 0.66Q26.99-0.50 26.55-1.42Q26.11-2.34 25.30-2.86Q24.49-3.38 23.37-3.38L23.37-3.38Q22.23-3.38 21.37-2.84Q20.51-2.30 20.04-1.35Q19.57-0.40 19.57 0.82L19.57 0.82Q19.57 2.04 20.10 2.98Q20.63 3.92 21.55 4.46Q22.47 5.00 23.67 5.00L23.67 5.00Q24.39 5.00 25.12 4.75Q25.85 4.50 26.29 4.12L26.29 4.12Q26.51 3.94 26.79 3.93Q27.07 3.92 27.27 4.08L27.27 4.08Q27.53 4.32 27.54 4.60Q27.55 4.88 27.31 5.08L27.31 5.08Q26.65 5.64 25.63 6.01Q24.61 6.38 23.67 6.38Z"/><path fill="#000000" opacity="1" d="M35.47 6.38L35.47 6.38Q33.89 6.38 32.66 5.65Q31.43 4.92 30.72 3.66Q30.01 2.40 30.01 0.82L30.01 0.82Q30.01-0.78 30.69-2.04Q31.37-3.30 32.55-4.03Q33.73-4.76 35.27-4.76L35.27-4.76Q36.49-4.76 37.52-4.28Q38.55-3.80 39.33-2.84L39.33-2.84Q39.55-2.60 39.49-2.33Q39.43-2.06 39.15-1.86L39.15-1.86Q38.93-1.70 38.66-1.75Q38.39-1.80 38.19-2.04L38.19-2.04Q37.03-3.36 35.27-3.36L35.27-3.36Q34.15-3.36 33.30-2.82Q32.45-2.28 31.98-1.34Q31.51-0.40 31.51 0.82L31.51 0.82Q31.51 2.02 32.01 2.96Q32.51 3.90 33.41 4.44Q34.31 4.98 35.47 4.98L35.47 4.98Q36.25 4.98 36.90 4.77Q37.55 4.56 38.05 4.12L38.05 4.12Q38.29 3.92 38.55 3.90Q38.81 3.88 39.03 4.06L39.03 4.06Q39.27 4.28 39.30 4.56Q39.33 4.84 39.11 5.04L39.11 5.04Q37.65 6.38 35.47 6.38Z"/><path fill="#000000" opacity="1" d="M47.21 6.28L46.79 6.28Q45.73 6.28 44.90 5.78Q44.07 5.28 43.59 4.41Q43.11 3.54 43.11 2.42L43.11 2.42L43.11-7.36Q43.11-7.70 43.32-7.92Q43.53-8.14 43.87-8.14L43.87-8.14Q44.21-8.14 44.43-7.92Q44.65-7.70 44.65-7.36L44.65-7.36L44.65 2.42Q44.65 3.44 45.25 4.09Q45.85 4.74 46.79 4.74L46.79 4.74L47.33 4.74Q47.65 4.74 47.85 4.96Q48.05 5.18 48.05 5.52L48.05 5.52Q48.05 5.86 47.81 6.07Q47.57 6.28 47.21 6.28L47.21 6.28ZM46.91-2.92L41.81-2.92Q41.51-2.92 41.31-3.11Q41.11-3.30 41.11-3.58L41.11-3.58Q41.11-3.88 41.31-4.07Q41.51-4.26 41.81-4.26L41.81-4.26L46.91-4.26Q47.21-4.26 47.41-4.07Q47.61-3.88 47.61-3.58L47.61-3.58Q47.61-3.30 47.41-3.11Q47.21-2.92 46.91-2.92L46.91-2.92Z"/><path fill="#000000" opacity="1" d="M55.37 6.38L55.37 6.38Q53.83 6.38 52.61 5.65Q51.39 4.92 50.68 3.66Q49.97 2.40 49.97 0.82L49.97 0.82Q49.97-0.78 50.70-2.04Q51.43-3.30 52.69-4.03Q53.95-4.76 55.53-4.76L55.53-4.76Q57.11-4.76 58.36-4.03Q59.61-3.30 60.34-2.04Q61.07-0.78 61.09 0.82L61.09 0.82L60.47 1.30Q60.47 2.74 59.80 3.89Q59.13 5.04 57.98 5.71Q56.83 6.38 55.37 6.38ZM55.53 4.98L55.53 4.98Q56.69 4.98 57.60 4.44Q58.51 3.90 59.04 2.95Q59.57 2.00 59.57 0.82L59.57 0.82Q59.57-0.38 59.04-1.32Q58.51-2.26 57.60-2.81Q56.69-3.36 55.53-3.36L55.53-3.36Q54.39-3.36 53.47-2.81Q52.55-2.26 52.01-1.32Q51.47-0.38 51.47 0.82L51.47 0.82Q51.47 2.00 52.01 2.95Q52.55 3.90 53.47 4.44Q54.39 4.98 55.53 4.98ZM60.31 6.28L60.31 6.28Q59.97 6.28 59.75 6.07Q59.53 5.86 59.53 5.52L59.53 5.52L59.53 2.10L59.91 0.52L61.09 0.82L61.09 5.52Q61.09 5.86 60.87 6.07Q60.65 6.28 60.31 6.28Z"/><path fill="#000000" opacity="1" d="M69.07 6.38L69.07 6.38Q67.49 6.38 66.23 5.65Q64.97 4.92 64.24 3.66Q63.51 2.40 63.51 0.80L63.51 0.80Q63.51-0.78 64.22-2.04Q64.93-3.30 66.15-4.03Q67.37-4.76 68.91-4.76L68.91-4.76Q70.25-4.76 71.33-4.19Q72.41-3.62 73.07-2.68L73.07-2.68L73.07-8.56Q73.07-8.92 73.29-9.13Q73.51-9.34 73.85-9.34L73.85-9.34Q74.19-9.34 74.41-9.13Q74.63-8.92 74.63-8.56L74.63-8.56L74.63 0.88Q74.59 2.44 73.86 3.69Q73.13 4.94 71.88 5.66Q70.63 6.38 69.07 6.38ZM69.07 4.98L69.07 4.98Q70.23 4.98 71.14 4.43Q72.05 3.88 72.58 2.94Q73.11 2.00 73.11 0.80L73.11 0.80Q73.11-0.38 72.58-1.33Q72.05-2.28 71.14-2.82Q70.23-3.36 69.07-3.36L69.07-3.36Q67.93-3.36 67.01-2.82Q66.09-2.28 65.55-1.33Q65.01-0.38 65.01 0.80L65.01 0.80Q65.01 2.00 65.55 2.94Q66.09 3.88 67.01 4.43Q67.93 4.98 69.07 4.98Z"/><path fill="#000000" opacity="1" d="M83.21 6.38L83.21 6.38Q81.61 6.38 80.35 5.66Q79.09 4.94 78.37 3.68Q77.65 2.42 77.65 0.82L77.65 0.82Q77.65-0.80 78.37-2.06Q79.09-3.32 80.35-4.04Q81.61-4.76 83.21-4.76L83.21-4.76Q84.81-4.76 86.06-4.04Q87.31-3.32 88.03-2.06Q88.75-0.80 88.77 0.82L88.77 0.82Q88.77 2.42 88.04 3.68Q87.31 4.94 86.06 5.66Q84.81 6.38 83.21 6.38ZM83.21 4.98L83.21 4.98Q84.37 4.98 85.29 4.44Q86.21 3.90 86.73 2.96Q87.25 2.02 87.25 0.82L87.25 0.82Q87.25-0.38 86.73-1.33Q86.21-2.28 85.29-2.82Q84.37-3.36 83.21-3.36L83.21-3.36Q82.05-3.36 81.13-2.82Q80.21-2.28 79.68-1.33Q79.15-0.38 79.15 0.82L79.15 0.82Q79.15 2.02 79.68 2.96Q80.21 3.90 81.13 4.44Q82.05 4.98 83.21 4.98Z"/></g>
<g transform="matrix(0.09851992129804021 -0.01714132746983038 0.017141327469830377 0.09851992129804017 390.70610944757425 224.103916240184)"  >
<path style="stroke: none; stroke-width: 1; stroke-dasharray: none; stroke-linecap: butt; stroke-dashoffset: 0; stroke-linejoin: miter; stroke-miterlimit: 4; fill: rgb(255,221,89); fill-rule: evenodd; opacity: 1;"  transform=" translate(-423.3346891354045, -423.13111729300067)" d="M 528 336 c 30 52 60 104 90 156 c 125 215 144 179 -106 179 c -60 0 -120 0 -180 0 c -249 0 -227 35 -102 -182 c 30 -51 60 -103 90 -155 c 124 -216 84 -214 208 2 z" stroke-linecap="round" />
</g>
<g transform="matrix(0.06872321078201116 0.013308655071466318 -0.013308655071466318 0.06872321078201116 349.99283062831347 204.507712665674)"  >
<path style="stroke: none; stroke-width: 1; stroke-dasharray: none; stroke-linecap: butt; stroke-dashoffset: 0; stroke-linejoin: miter; stroke-miterlimit: 4; fill: rgb(32,178,255); fill-rule: evenodd; opacity: 1;"  transform=" translate(-423.3346891354045, -423.13111729300067)" d="M 528 336 c 30 52 60 104 90 156 c 125 215 144 179 -106 179 c -60 0 -120 0 -180 0 c -249 0 -227 35 -102 -182 c 30 -51 60 -103 90 -155 c 124 -216 84 -214 208 2 z" stroke-linecap="round" />
</g>
<g transform="matrix(-0.08208437014926445 -0.03690740003303596 0.03690740003303596 -0.08208437014926445 380.3644794093291 176.50836488645317)"  >
<path style="stroke: none; stroke-width: 1; stroke-dasharray: none; stroke-linecap: butt; stroke-dashoffset: 0; stroke-linejoin: miter; stroke-miterlimit: 4; fill: rgb(253,116,0); fill-rule: evenodd; opacity: 1;"  transform=" translate(-423.3346891354045, -423.13111729300067)" d="M 528 336 c 30 52 60 104 90 156 c 125 215 144 179 -106 179 c -60 0 -120 0 -180 0 c -249 0 -227 35 -102 -182 c 30 -51 60 -103 90 -155 c 124 -216 84 -214 208 2 z" stroke-linecap="round" />
</g>
</svg>