<?xml version="1.0" encoding="utf-8"?>
<!-- Generator: Adobe Illustrator 26.0.2, SVG Export Plug-In . SVG Version: 6.00 Build 0)  -->
<svg version="1.1" id="Camada_1" xmlns="http://www.w3.org/2000/svg" xmlns:xlink="http://www.w3.org/1999/xlink" x="0px" y="0px"
	 viewBox="0 0 323.3 170.8" style="enable-background:new 0 0 323.3 170.8;" xml:space="preserve">
<style type="text/css">
	.st0{fill-rule:evenodd;clip-rule:evenodd;fill:#FFDD59;}
	.st1{fill-rule:evenodd;clip-rule:evenodd;fill:#20B2FF;}
	.st2{fill-rule:evenodd;clip-rule:evenodd;fill:#FD7400;}
</style>
<desc>Created with Fabric.js 3.6.3</desc>
<g transform="matrix(1,0,0,1,211.89500000000004,260.18510791418487)">
	<path d="M-194-129.6L-194-129.6c-0.5,0-0.9-0.2-1.2-0.5c-0.3-0.3-0.5-0.7-0.5-1.2l0,0V-164h3.4v32.7c0,0.5-0.2,0.9-0.5,1.2
		C-193.1-129.8-193.5-129.6-194-129.6z M-181.8-160.9h-24.4c-0.5,0-0.8-0.1-1.1-0.4s-0.4-0.7-0.4-1.1l0,0c0-0.5,0.1-0.8,0.4-1.1
		c0.3-0.3,0.7-0.4,1.1-0.4l0,0h24.4c0.5,0,0.8,0.1,1.1,0.4c0.3,0.3,0.4,0.7,0.4,1.1l0,0c0,0.4-0.1,0.8-0.4,1.1
		C-181-161-181.4-160.9-181.8-160.9L-181.8-160.9z"/>
	<path d="M-155-129.6L-155-129.6c-0.5,0-0.9-0.2-1.2-0.5c-0.3-0.3-0.5-0.7-0.5-1.2l0,0v-11.4c0-1.8-0.3-3.3-1-4.5
		c-0.7-1.2-1.6-2.1-2.8-2.6c-1.2-0.6-2.5-0.9-4-0.9l0,0c-1.4,0-2.7,0.3-3.9,0.8c-1.2,0.6-2.1,1.3-2.8,2.3c-0.7,1-1,2.1-1,3.3l0,0
		h-2.4c0.1-1.9,0.6-3.5,1.5-5c0.9-1.5,2.2-2.6,3.7-3.4c1.6-0.8,3.3-1.3,5.2-1.3l0,0c2.1,0,3.9,0.4,5.6,1.3c1.6,0.9,2.9,2.1,3.9,3.8
		c1,1.7,1.4,3.7,1.4,6.1l0,0v11.4c0,0.5-0.2,0.9-0.5,1.2C-154.1-129.8-154.5-129.6-155-129.6z M-173.9-129.6L-173.9-129.6
		c-0.5,0-0.9-0.2-1.2-0.5c-0.3-0.3-0.5-0.7-0.5-1.2l0,0V-152c0-0.5,0.2-1,0.5-1.3c0.3-0.3,0.7-0.5,1.2-0.5l0,0
		c0.5,0,0.9,0.2,1.2,0.5c0.3,0.3,0.5,0.7,0.5,1.3l0,0v20.7c0,0.5-0.2,0.9-0.5,1.2C-173-129.8-173.4-129.6-173.9-129.6z
		 M-173.9-139.5L-173.9-139.5c-0.5,0-0.9-0.2-1.2-0.5c-0.3-0.3-0.5-0.7-0.5-1.2l0,0v-21.1c0-0.5,0.2-0.9,0.5-1.2
		c0.3-0.3,0.7-0.5,1.2-0.5l0,0c0.5,0,0.9,0.2,1.2,0.5c0.3,0.3,0.5,0.7,0.5,1.2l0,0v21.1c0,0.5-0.2,0.9-0.5,1.2
		C-173-139.6-173.4-139.5-173.9-139.5z"/>
	<path d="M-142.5-144.5h-1.9c0.1-1.8,0.6-3.4,1.4-4.9c0.9-1.4,2-2.6,3.4-3.4c1.4-0.8,2.9-1.2,4.6-1.2l0,0c1.4,0,2.4,0.2,3.1,0.6
		c0.7,0.4,1,0.9,0.8,1.7l0,0c-0.1,0.4-0.3,0.7-0.6,0.9c-0.3,0.1-0.6,0.2-1,0.2c-0.4,0-0.8-0.1-1.3-0.1l0,0c-1.6-0.1-3.1,0-4.4,0.5
		c-1.3,0.5-2.3,1.2-3,2.2C-142.1-147-142.5-145.9-142.5-144.5L-142.5-144.5z M-144.1-129.6L-144.1-129.6c-0.5,0-0.9-0.1-1.2-0.4
		c-0.3-0.3-0.4-0.7-0.4-1.2l0,0v-20.7c0-0.5,0.1-0.9,0.4-1.2s0.7-0.4,1.2-0.4l0,0c0.5,0,0.9,0.1,1.2,0.4c0.3,0.3,0.4,0.7,0.4,1.2
		l0,0v20.7c0,0.5-0.1,0.9-0.4,1.2C-143.2-129.8-143.6-129.6-144.1-129.6z"/>
	<path d="M-116.5-129.4L-116.5-129.4c-2.4,0-4.5-0.5-6.3-1.6c-1.8-1-3.3-2.5-4.3-4.3c-1-1.8-1.6-4-1.6-6.3l0,0
		c0-2.4,0.5-4.5,1.5-6.4c1-1.8,2.3-3.3,4.1-4.3c1.7-1.1,3.7-1.6,6-1.6l0,0c2.2,0,4.2,0.5,5.8,1.5c1.7,1,2.9,2.4,3.8,4.2
		c0.9,1.8,1.4,3.8,1.4,6.1l0,0c0,0.5-0.1,0.8-0.4,1.1c-0.3,0.3-0.7,0.4-1.2,0.4l0,0h-18.7v-2.8h19.1l-1.9,1.4c0-1.7-0.3-3.2-0.9-4.6
		c-0.6-1.3-1.6-2.4-2.8-3.2c-1.2-0.8-2.6-1.1-4.2-1.1l0,0c-1.7,0-3.1,0.4-4.4,1.2c-1.3,0.8-2.2,1.9-2.9,3.3c-0.7,1.4-1,3-1,4.8l0,0
		c0,1.8,0.4,3.4,1.2,4.8s1.8,2.5,3.2,3.2c1.4,0.8,2.9,1.2,4.7,1.2l0,0c1.1,0,2.1-0.2,3.2-0.6c1.1-0.4,1.9-0.8,2.6-1.4l0,0
		c0.3-0.3,0.7-0.4,1.1-0.4c0.4,0,0.8,0.1,1,0.3l0,0c0.4,0.4,0.6,0.7,0.6,1.1c0,0.4-0.2,0.8-0.5,1.1l0,0c-1,0.8-2.2,1.5-3.7,2.1
		C-113.7-129.7-115.1-129.4-116.5-129.4z"/>
	<path d="M-90.3-129.4L-90.3-129.4c-2.4,0-4.5-0.5-6.3-1.6c-1.8-1-3.3-2.5-4.3-4.3s-1.6-4-1.6-6.3l0,0c0-2.4,0.5-4.5,1.5-6.4
		c1-1.8,2.3-3.3,4.1-4.3c1.7-1.1,3.7-1.6,6-1.6l0,0c2.2,0,4.2,0.5,5.8,1.5c1.7,1,2.9,2.4,3.9,4.2c0.9,1.8,1.4,3.8,1.4,6.1l0,0
		c0,0.5-0.1,0.8-0.4,1.1c-0.3,0.3-0.7,0.4-1.2,0.4l0,0h-18.7v-2.8h19.1l-1.9,1.4c0-1.7-0.3-3.2-0.9-4.6c-0.6-1.3-1.6-2.4-2.8-3.2
		c-1.2-0.8-2.6-1.1-4.2-1.1l0,0c-1.7,0-3.1,0.4-4.4,1.2c-1.3,0.8-2.2,1.9-2.9,3.3c-0.7,1.4-1,3-1,4.8l0,0c0,1.8,0.4,3.4,1.2,4.8
		s1.8,2.5,3.2,3.2c1.4,0.8,2.9,1.2,4.7,1.2l0,0c1.1,0,2.1-0.2,3.2-0.6s1.9-0.8,2.6-1.4l0,0c0.3-0.3,0.7-0.4,1.1-0.4
		c0.4,0,0.8,0.1,1.1,0.3l0,0c0.4,0.4,0.6,0.7,0.6,1.1c0,0.4-0.2,0.8-0.5,1.1l0,0c-1,0.8-2.2,1.5-3.7,2.1
		C-87.5-129.7-89-129.4-90.3-129.4z"/>
	<path d="M-58.3-129.2L-58.3-129.2c-2.4,0-4.6-0.5-6.7-1.4c-2.1-0.9-3.9-2.2-5.5-3.8c-1.6-1.6-2.8-3.5-3.7-5.6
		c-0.9-2.1-1.3-4.4-1.3-6.8l0,0c0-2.4,0.4-4.7,1.3-6.8c0.9-2.1,2.1-4,3.7-5.6c1.6-1.6,3.4-2.9,5.5-3.8c2.1-0.9,4.3-1.4,6.7-1.4l0,0
		c2.1,0,4,0.3,5.8,0.9c1.7,0.6,3.4,1.6,5,2.9l0,0c0.3,0.2,0.4,0.4,0.5,0.7c0,0.3,0,0.5-0.1,0.8c-0.1,0.2-0.3,0.4-0.5,0.6l0,0
		c-0.1,0.2-0.2,0.4-0.4,0.5c-0.2,0.1-0.5,0.2-0.8,0.1c-0.3,0-0.6-0.2-0.9-0.4l0,0c-1.1-1-2.4-1.7-3.7-2.2c-1.4-0.5-2.9-0.7-4.7-0.7
		l0,0c-1.9,0-3.7,0.4-5.4,1.1c-1.7,0.8-3.1,1.8-4.4,3.1c-1.3,1.3-2.3,2.9-3,4.6c-0.7,1.7-1.1,3.6-1.1,5.5l0,0c0,2,0.4,3.9,1.1,5.6
		c0.7,1.7,1.7,3.3,3,4.6c1.3,1.3,2.7,2.4,4.4,3.1c1.7,0.7,3.4,1.1,5.4,1.1l0,0c1.6,0,3.1-0.3,4.6-0.8c1.4-0.5,2.8-1.3,4.1-2.3l0,0
		c0.4-0.3,0.7-0.4,1.1-0.4c0.4,0.1,0.7,0.2,1,0.5c0.3,0.3,0.4,0.7,0.4,1.1l0,0c0,0.2,0,0.4-0.1,0.6c-0.1,0.2-0.2,0.4-0.4,0.6l0,0
		c-1.5,1.4-3.2,2.4-5,2.9C-54.4-129.5-56.3-129.2-58.3-129.2z"/>
	<path d="M-31.1-129.4L-31.1-129.4c-2.3,0-4.4-0.5-6.3-1.6c-1.8-1.1-3.3-2.5-4.4-4.4c-1.1-1.9-1.6-4-1.6-6.3l0,0
		c0-2.4,0.5-4.5,1.6-6.3c1.1-1.8,2.5-3.3,4.4-4.4c1.9-1.1,4-1.6,6.3-1.6l0,0c2.3,0,4.4,0.5,6.3,1.6c1.8,1.1,3.3,2.5,4.3,4.4
		c1.1,1.9,1.6,4,1.6,6.3l0,0c0,2.3-0.5,4.4-1.6,6.3c-1.1,1.8-2.5,3.3-4.4,4.4C-26.6-129.9-28.7-129.4-31.1-129.4z M-31.1-132.5
		L-31.1-132.5c1.7,0,3.2-0.4,4.6-1.2c1.3-0.8,2.4-1.9,3.2-3.3c0.8-1.4,1.1-2.9,1.1-4.7l0,0c0-1.8-0.4-3.3-1.1-4.7
		c-0.8-1.4-1.8-2.5-3.2-3.3c-1.4-0.8-2.9-1.2-4.6-1.2l0,0c-1.7,0-3.2,0.4-4.6,1.2c-1.4,0.8-2.4,1.9-3.2,3.3c-0.8,1.4-1.2,3-1.2,4.7
		l0,0c0,1.8,0.4,3.3,1.2,4.7c0.8,1.4,1.8,2.5,3.2,3.3C-34.3-132.9-32.8-132.5-31.1-132.5z"/>
	<path d="M-1.3-129.4L-1.3-129.4c-2.3,0-4.4-0.5-6.2-1.6c-1.8-1.1-3.3-2.5-4.4-4.4c-1.1-1.8-1.6-3.9-1.6-6.3l0,0
		c0-2.3,0.5-4.4,1.6-6.2c1-1.9,2.5-3.3,4.2-4.4c1.8-1.1,3.8-1.6,6.1-1.6l0,0c2,0,3.7,0.4,5.3,1.2c1.6,0.8,2.9,1.9,3.8,3.3l0,0v-12.9
		c0-0.5,0.2-0.9,0.5-1.2c0.3-0.3,0.7-0.5,1.2-0.5l0,0c0.5,0,0.9,0.2,1.2,0.5c0.3,0.3,0.5,0.7,0.5,1.2l0,0v20.8
		c-0.1,2.3-0.6,4.4-1.7,6.2c-1.1,1.8-2.5,3.3-4.4,4.3C3.1-129.9,1-129.4-1.3-129.4z M-1.3-132.5L-1.3-132.5c1.7,0,3.2-0.4,4.6-1.2
		c1.3-0.8,2.4-1.9,3.2-3.3c0.8-1.4,1.2-2.9,1.2-4.7l0,0c0-1.7-0.4-3.3-1.2-4.7c-0.8-1.4-1.8-2.5-3.2-3.3c-1.3-0.8-2.9-1.2-4.6-1.2
		l0,0c-1.7,0-3.2,0.4-4.5,1.2c-1.4,0.8-2.4,1.9-3.2,3.3c-0.8,1.4-1.2,3-1.2,4.7l0,0c0,1.8,0.4,3.3,1.2,4.7c0.8,1.4,1.9,2.5,3.2,3.3
		C-4.5-132.9-3-132.5-1.3-132.5z"/>
	<path d="M29.8-129.4L29.8-129.4c-2.4,0-4.5-0.5-6.3-1.6c-1.8-1-3.3-2.5-4.3-4.3c-1-1.8-1.6-4-1.6-6.3l0,0c0-2.4,0.5-4.5,1.5-6.4
		c1-1.8,2.3-3.3,4.1-4.3c1.7-1.1,3.7-1.6,6-1.6l0,0c2.2,0,4.2,0.5,5.8,1.5c1.7,1,2.9,2.4,3.8,4.2c0.9,1.8,1.4,3.8,1.4,6.1l0,0
		c0,0.5-0.1,0.8-0.4,1.1c-0.3,0.3-0.7,0.4-1.1,0.4l0,0H19.9v-2.8H39l-1.9,1.4c0-1.7-0.3-3.2-0.9-4.6c-0.6-1.3-1.6-2.4-2.8-3.2
		c-1.2-0.8-2.6-1.1-4.2-1.1l0,0c-1.7,0-3.1,0.4-4.4,1.2c-1.3,0.8-2.2,1.9-2.9,3.3c-0.7,1.4-1,3-1,4.8l0,0c0,1.8,0.4,3.4,1.2,4.8
		c0.8,1.4,1.8,2.5,3.2,3.2c1.3,0.8,2.9,1.2,4.7,1.2l0,0c1.1,0,2.1-0.2,3.2-0.6c1.1-0.4,1.9-0.8,2.6-1.4l0,0c0.3-0.3,0.7-0.4,1.1-0.4
		c0.4,0,0.8,0.1,1.1,0.3l0,0c0.4,0.4,0.6,0.7,0.6,1.1c0,0.4-0.2,0.8-0.5,1.1l0,0c-1,0.8-2.2,1.5-3.7,2.1
		C32.6-129.7,31.2-129.4,29.8-129.4z"/>
</g>
<g transform="matrix(1,0,0,1,266.94915605989485,303.12)">
	<path d="M-176.6-137.2L-176.6-137.2c-0.3,0-0.6-0.2-0.7-0.5l0,0l-5.9-13.9c-0.1-0.4-0.2-0.7,0-0.9s0.3-0.3,0.7-0.3l0,0
		c0.3,0,0.6,0.2,0.7,0.5l0,0l5.5,13.2h-0.4l5.5-13.2c0.1-0.2,0.2-0.3,0.3-0.4c0.1-0.1,0.3-0.1,0.5-0.1l0,0c0.3,0,0.5,0.1,0.6,0.4
		c0.1,0.2,0.1,0.5,0,0.8l0,0l-6,14c-0.1,0.2-0.2,0.3-0.3,0.4C-176.3-137.2-176.4-137.2-176.6-137.2z"/>
	<path d="M-164.8-137.1L-164.8-137.1c-1.1,0-2-0.2-2.9-0.7c-0.8-0.5-1.5-1.1-2-2c-0.5-0.8-0.7-1.8-0.7-2.9l0,0c0-1.1,0.2-2,0.7-2.9
		c0.5-0.8,1.1-1.5,2-2c0.8-0.5,1.8-0.7,2.9-0.7l0,0c1.1,0,2,0.2,2.8,0.7c0.8,0.5,1.5,1.1,2,2c0.5,0.8,0.7,1.8,0.7,2.9l0,0
		c0,1.1-0.2,2-0.7,2.9s-1.1,1.5-2,2C-162.8-137.3-163.8-137.1-164.8-137.1z M-164.8-138.5L-164.8-138.5c0.8,0,1.5-0.2,2.1-0.5
		c0.6-0.4,1.1-0.9,1.4-1.5c0.3-0.6,0.5-1.3,0.5-2.1l0,0c0-0.8-0.2-1.5-0.5-2.1c-0.3-0.6-0.8-1.1-1.4-1.5c-0.6-0.4-1.3-0.5-2.1-0.5
		l0,0c-0.8,0-1.5,0.2-2.1,0.5c-0.6,0.4-1.1,0.9-1.4,1.5s-0.5,1.3-0.5,2.1l0,0c0,0.8,0.2,1.5,0.5,2.1s0.8,1.1,1.4,1.5
		C-166.3-138.7-165.6-138.5-164.8-138.5z"/>
	<path d="M-151.4-137.1L-151.4-137.1c-1.1,0-2-0.2-2.8-0.7c-0.8-0.5-1.5-1.1-1.9-2c-0.5-0.8-0.7-1.8-0.7-2.8l0,0
		c0-1.1,0.2-2,0.7-2.9c0.5-0.8,1.1-1.5,1.9-2c0.8-0.5,1.7-0.7,2.7-0.7l0,0c0.8,0,1.6,0.2,2.2,0.5c0.7,0.3,1.3,0.8,1.8,1.4l0,0
		c0.1,0.2,0.2,0.3,0.2,0.5c0,0.2-0.2,0.3-0.3,0.5l0,0c-0.1,0.1-0.3,0.1-0.5,0.1c-0.2,0-0.3-0.1-0.5-0.3l0,0
		c-0.8-0.9-1.7-1.3-2.9-1.3l0,0c-0.7,0-1.4,0.2-2,0.5s-1,0.9-1.3,1.5c-0.3,0.6-0.5,1.3-0.5,2.2l0,0c0,0.8,0.2,1.5,0.5,2.1
		s0.8,1.1,1.4,1.5c0.6,0.4,1.3,0.5,2.1,0.5l0,0c0.5,0,1-0.1,1.4-0.2s0.8-0.4,1.1-0.6l0,0c0.2-0.1,0.3-0.2,0.5-0.2
		c0.2,0,0.3,0,0.5,0.2l0,0c0.2,0.1,0.2,0.3,0.3,0.5c0,0.2,0,0.3-0.2,0.5l0,0C-148.7-137.5-150-137.1-151.4-137.1z"/>
	<path d="M-139.4-137.1L-139.4-137.1c-1.1,0-2-0.2-2.9-0.7c-0.8-0.5-1.5-1.1-2-2c-0.5-0.8-0.7-1.8-0.7-2.9l0,0
		c0-1.1,0.2-2.1,0.7-2.9s1.1-1.5,1.9-2s1.7-0.7,2.7-0.7l0,0c1,0,1.9,0.2,2.6,0.7c0.8,0.5,1.3,1.1,1.8,1.9c0.4,0.8,0.6,1.7,0.6,2.8
		l0,0c0,0.2-0.1,0.4-0.2,0.5s-0.3,0.2-0.5,0.2l0,0h-8.5v-1.3h8.7l-0.9,0.6c0-0.8-0.1-1.5-0.4-2.1c-0.3-0.6-0.7-1.1-1.2-1.4
		c-0.5-0.3-1.2-0.5-1.9-0.5l0,0c-0.8,0-1.4,0.2-2,0.5s-1,0.9-1.3,1.5c-0.3,0.6-0.5,1.4-0.5,2.2l0,0c0,0.8,0.2,1.5,0.5,2.2
		s0.8,1.1,1.4,1.5c0.6,0.4,1.3,0.5,2.1,0.5l0,0c0.5,0,1-0.1,1.4-0.2c0.5-0.2,0.9-0.4,1.2-0.6l0,0c0.1-0.1,0.3-0.2,0.5-0.2
		c0.2,0,0.3,0,0.5,0.1l0,0c0.2,0.2,0.3,0.3,0.3,0.5c0,0.2-0.1,0.3-0.2,0.5l0,0c-0.4,0.4-1,0.7-1.7,0.9
		C-138.1-137.2-138.8-137.1-139.4-137.1z M-142.1-149.9L-142.1-149.9c-0.2,0-0.4-0.1-0.6-0.2c-0.2-0.1-0.2-0.3-0.2-0.5l0,0
		c0-0.3,0.1-0.5,0.4-0.7l0,0l2.4-1.6c0.1-0.1,0.2-0.1,0.4-0.1l0,0c0.1,0,0.2,0,0.2,0c0.1,0,0.1,0,0.2,0.1l0,0l2.3,1.6
		c0.3,0.2,0.4,0.4,0.4,0.7l0,0c0,0.2-0.1,0.4-0.2,0.5c-0.1,0.1-0.3,0.2-0.6,0.2l0,0c-0.1,0-0.2,0-0.2,0c-0.1,0-0.1-0.1-0.2-0.1l0,0
		l-1.9-1.3l-1.9,1.3C-141.8-149.9-142-149.9-142.1-149.9z M-103.2-143.5"/>
	<path d="M-119-137L-119-137c-1.1,0-2.1-0.2-3-0.6c-0.9-0.4-1.8-1-2.5-1.7c-0.7-0.7-1.3-1.6-1.7-2.6c-0.4-1-0.6-2-0.6-3.1l0,0
		c0-1.1,0.2-2.1,0.6-3.1c0.4-1,0.9-1.8,1.7-2.6s1.5-1.3,2.5-1.7c0.9-0.4,2-0.6,3.1-0.6l0,0c1,0,1.8,0.1,2.6,0.4s1.5,0.7,2.3,1.3l0,0
		c0.1,0.1,0.2,0.2,0.2,0.3c0,0.1,0,0.2-0.1,0.4c-0.1,0.1-0.1,0.2-0.2,0.2l0,0c0,0.1-0.1,0.2-0.2,0.2s-0.2,0.1-0.4,0.1
		s-0.3-0.1-0.4-0.2l0,0c-0.5-0.5-1.1-0.8-1.7-1s-1.3-0.3-2.1-0.3l0,0c-0.9,0-1.7,0.2-2.4,0.5s-1.4,0.8-2,1.4c-0.6,0.6-1,1.3-1.4,2.1
		s-0.5,1.6-0.5,2.5l0,0c0,0.9,0.2,1.8,0.5,2.5s0.8,1.5,1.4,2.1c0.6,0.6,1.2,1.1,2,1.4s1.6,0.5,2.4,0.5l0,0c0.7,0,1.4-0.1,2.1-0.4
		c0.7-0.2,1.3-0.6,1.9-1l0,0c0.2-0.1,0.3-0.2,0.5-0.2c0.2,0,0.3,0.1,0.5,0.2s0.2,0.3,0.2,0.5l0,0c0,0.1,0,0.2-0.1,0.3
		s-0.1,0.2-0.2,0.3l0,0c-0.7,0.6-1.4,1.1-2.3,1.3C-117.2-137.1-118.1-137-119-137z"/>
	<path d="M-106.6-137.1L-106.6-137.1c-1.1,0-2-0.2-2.9-0.7c-0.8-0.5-1.5-1.1-2-2c-0.5-0.8-0.7-1.8-0.7-2.9l0,0c0-1.1,0.2-2,0.7-2.9
		c0.5-0.8,1.1-1.5,2-2c0.8-0.5,1.8-0.7,2.9-0.7l0,0c1.1,0,2,0.2,2.9,0.7c0.8,0.5,1.5,1.1,2,2c0.5,0.8,0.7,1.8,0.7,2.9l0,0
		c0,1.1-0.2,2-0.7,2.9c-0.5,0.8-1.1,1.5-2,2C-104.6-137.3-105.6-137.1-106.6-137.1z M-106.6-138.5L-106.6-138.5
		c0.8,0,1.5-0.2,2.1-0.5s1.1-0.9,1.4-1.5s0.5-1.3,0.5-2.1l0,0c0-0.8-0.2-1.5-0.5-2.1s-0.8-1.1-1.4-1.5s-1.3-0.5-2.1-0.5l0,0
		c-0.8,0-1.5,0.2-2.1,0.5c-0.6,0.4-1.1,0.9-1.5,1.5s-0.5,1.3-0.5,2.1l0,0c0,0.8,0.2,1.5,0.5,2.1s0.8,1.1,1.5,1.5
		C-108.1-138.7-107.4-138.5-106.6-138.5z"/>
	<path d="M-88.7-137.2L-88.7-137.2c-0.2,0-0.4-0.1-0.6-0.2s-0.2-0.3-0.2-0.5l0,0v-5.2c0-0.8-0.2-1.5-0.5-2c-0.3-0.5-0.7-0.9-1.3-1.2
		c-0.5-0.3-1.2-0.4-1.8-0.4l0,0c-0.7,0-1.2,0.1-1.8,0.4c-0.5,0.3-0.9,0.6-1.2,1c-0.3,0.4-0.5,0.9-0.5,1.5l0,0h-1.1
		c0-0.8,0.3-1.6,0.7-2.2s1-1.2,1.7-1.6c0.7-0.4,1.5-0.6,2.4-0.6l0,0c0.9,0,1.8,0.2,2.5,0.6c0.7,0.4,1.3,1,1.8,1.7s0.7,1.7,0.7,2.8
		l0,0v5.2c0,0.2-0.1,0.4-0.2,0.5S-88.5-137.2-88.7-137.2z M-97.3-137.2L-97.3-137.2c-0.2,0-0.4-0.1-0.6-0.2s-0.2-0.3-0.2-0.6l0,0
		v-9.4c0-0.2,0.1-0.4,0.2-0.6s0.3-0.2,0.6-0.2l0,0c0.2,0,0.4,0.1,0.5,0.2c0.1,0.1,0.2,0.3,0.2,0.6l0,0v9.4c0,0.2-0.1,0.4-0.2,0.6
		C-96.9-137.3-97.1-137.2-97.3-137.2z"/>
	<path d="M-79.6-137.1L-79.6-137.1c-1.1,0-2-0.2-2.9-0.7c-0.8-0.5-1.5-1.1-2-2c-0.5-0.8-0.7-1.8-0.7-2.9l0,0c0-1.1,0.2-2.1,0.7-2.9
		c0.4-0.8,1.1-1.5,1.8-2s1.7-0.7,2.7-0.7l0,0c1,0,1.9,0.2,2.7,0.7s1.3,1.1,1.8,1.9c0.4,0.8,0.6,1.7,0.6,2.8l0,0
		c0,0.2-0.1,0.4-0.2,0.5s-0.3,0.2-0.5,0.2l0,0h-8.5v-1.3h8.7l-0.9,0.6c0-0.8-0.1-1.5-0.4-2.1c-0.3-0.6-0.7-1.1-1.2-1.4
		c-0.5-0.3-1.2-0.5-1.9-0.5l0,0c-0.8,0-1.4,0.2-2,0.5s-1,0.9-1.3,1.5c-0.3,0.6-0.5,1.4-0.5,2.2l0,0c0,0.8,0.2,1.5,0.5,2.2
		c0.4,0.6,0.8,1.1,1.4,1.5s1.3,0.5,2.1,0.5l0,0c0.5,0,1-0.1,1.4-0.2c0.5-0.2,0.9-0.4,1.2-0.6l0,0c0.1-0.1,0.3-0.2,0.5-0.2
		s0.3,0,0.5,0.1l0,0c0.2,0.2,0.3,0.3,0.3,0.5c0,0.2-0.1,0.3-0.2,0.5l0,0c-0.4,0.4-1,0.7-1.7,0.9C-78.3-137.2-78.9-137.1-79.6-137.1z
		"/>
	<path d="M-67.8-137.1L-67.8-137.1c-1.1,0-2-0.2-2.8-0.7s-1.5-1.1-1.9-2c-0.5-0.8-0.7-1.8-0.7-2.8l0,0c0-1.1,0.2-2,0.7-2.9
		s1.1-1.5,1.9-2c0.8-0.5,1.7-0.7,2.7-0.7l0,0c0.8,0,1.6,0.2,2.2,0.5c0.7,0.3,1.3,0.8,1.8,1.4l0,0c0.1,0.2,0.2,0.3,0.2,0.5
		c0,0.2-0.2,0.3-0.3,0.5l0,0c-0.1,0.1-0.3,0.1-0.5,0.1c-0.2,0-0.3-0.1-0.5-0.3l0,0c-0.8-0.9-1.7-1.3-2.9-1.3l0,0
		c-0.7,0-1.4,0.2-2,0.5s-1,0.9-1.3,1.5c-0.3,0.6-0.5,1.3-0.5,2.2l0,0c0,0.8,0.2,1.5,0.5,2.1s0.8,1.1,1.4,1.5
		c0.6,0.4,1.3,0.5,2.1,0.5l0,0c0.5,0,1-0.1,1.4-0.2s0.8-0.4,1.2-0.6l0,0c0.2-0.1,0.3-0.2,0.5-0.2s0.3,0,0.5,0.2l0,0
		c0.2,0.1,0.3,0.3,0.3,0.5c0,0.2,0,0.3-0.2,0.5l0,0C-65.1-137.5-66.3-137.1-67.8-137.1z"/>
	<path d="M-56-137.2h-0.4c-0.7,0-1.3-0.2-1.9-0.5c-0.6-0.3-1-0.8-1.3-1.4s-0.5-1.2-0.5-2l0,0v-9.8c0-0.2,0.1-0.4,0.2-0.6
		c0.1-0.1,0.3-0.2,0.5-0.2l0,0c0.2,0,0.4,0.1,0.6,0.2c0.1,0.1,0.2,0.3,0.2,0.6l0,0v9.8c0,0.7,0.2,1.2,0.6,1.7s0.9,0.6,1.5,0.6l0,0
		h0.5c0.2,0,0.4,0.1,0.5,0.2s0.2,0.3,0.2,0.6l0,0c0,0.2-0.1,0.4-0.2,0.6C-55.6-137.3-55.8-137.2-56-137.2L-56-137.2z M-56.3-146.4
		h-5.1c-0.2,0-0.4-0.1-0.5-0.2c-0.1-0.1-0.2-0.3-0.2-0.5l0,0c0-0.2,0.1-0.4,0.2-0.5c0.1-0.1,0.3-0.2,0.5-0.2l0,0h5.1
		c0.2,0,0.4,0.1,0.5,0.2c0.1,0.1,0.2,0.3,0.2,0.5l0,0c0,0.2-0.1,0.3-0.2,0.5C-56-146.5-56.1-146.4-56.3-146.4L-56.3-146.4z"/>
	<path d="M-47.9-137.1L-47.9-137.1c-1,0-1.9-0.2-2.8-0.7s-1.5-1.1-1.9-2c-0.5-0.8-0.7-1.8-0.7-2.8l0,0c0-1.1,0.2-2,0.7-2.9
		c0.5-0.8,1.2-1.5,2-2c0.8-0.5,1.8-0.7,2.8-0.7l0,0c1.1,0,2,0.2,2.8,0.7c0.8,0.5,1.5,1.2,2,2c0.5,0.8,0.7,1.8,0.8,2.9l0,0l-0.6,0.5
		c0,1-0.2,1.8-0.7,2.6c-0.4,0.8-1.1,1.4-1.8,1.8C-46-137.3-46.9-137.1-47.9-137.1z M-47.7-138.5L-47.7-138.5c0.8,0,1.5-0.2,2.1-0.5
		s1.1-0.9,1.4-1.5c0.4-0.6,0.5-1.3,0.5-2.1l0,0c0-0.8-0.2-1.5-0.5-2.1c-0.4-0.6-0.8-1.1-1.4-1.5c-0.6-0.4-1.3-0.5-2.1-0.5l0,0
		c-0.8,0-1.4,0.2-2.1,0.5c-0.6,0.4-1.1,0.9-1.5,1.5s-0.5,1.3-0.5,2.1l0,0c0,0.8,0.2,1.5,0.5,2.1s0.8,1.1,1.5,1.5
		S-48.5-138.5-47.7-138.5z M-42.9-137.2L-42.9-137.2c-0.2,0-0.4-0.1-0.6-0.2s-0.2-0.3-0.2-0.6l0,0v-3.4l0.4-1.6l1.2,0.3v4.7
		c0,0.2-0.1,0.4-0.2,0.6S-42.7-137.2-42.9-137.2z"/>
	<path d="M-34.2-137.1L-34.2-137.1c-1.1,0-2-0.2-2.8-0.7s-1.5-1.1-2-2c-0.5-0.8-0.7-1.8-0.7-2.9l0,0c0-1.1,0.2-2,0.7-2.8
		c0.5-0.8,1.1-1.5,1.9-2c0.8-0.5,1.7-0.7,2.8-0.7l0,0c0.9,0,1.7,0.2,2.4,0.6c0.7,0.4,1.3,0.9,1.7,1.5l0,0v-5.9
		c0-0.2,0.1-0.4,0.2-0.6s0.3-0.2,0.6-0.2l0,0c0.2,0,0.4,0.1,0.6,0.2c0.1,0.1,0.2,0.3,0.2,0.6l0,0v9.4c0,1-0.3,2-0.8,2.8
		c-0.5,0.8-1.1,1.5-2,2C-32.2-137.3-33.1-137.1-34.2-137.1z M-34.2-138.5L-34.2-138.5c0.8,0,1.5-0.2,2.1-0.6s1.1-0.9,1.4-1.5
		c0.4-0.6,0.5-1.3,0.5-2.1l0,0c0-0.8-0.2-1.5-0.5-2.1s-0.8-1.1-1.4-1.5s-1.3-0.5-2.1-0.5l0,0c-0.8,0-1.4,0.2-2.1,0.5
		c-0.6,0.4-1.1,0.9-1.5,1.5c-0.4,0.6-0.5,1.3-0.5,2.1l0,0c0,0.8,0.2,1.5,0.5,2.1c0.4,0.6,0.8,1.1,1.5,1.5
		C-35.6-138.7-34.9-138.5-34.2-138.5z"/>
	<path d="M-20-137.1L-20-137.1c-1.1,0-2-0.2-2.9-0.7c-0.8-0.5-1.5-1.1-2-2s-0.7-1.8-0.7-2.9l0,0c0-1.1,0.2-2,0.7-2.9
		c0.5-0.8,1.1-1.5,2-2c0.8-0.5,1.8-0.7,2.9-0.7l0,0c1.1,0,2,0.2,2.8,0.7s1.5,1.1,2,2c0.5,0.8,0.7,1.8,0.7,2.9l0,0
		c0,1.1-0.2,2-0.7,2.9s-1.1,1.5-2,2C-18-137.3-19-137.1-20-137.1z M-20-138.5L-20-138.5c0.8,0,1.5-0.2,2.1-0.5
		c0.6-0.4,1.1-0.9,1.4-1.5c0.3-0.6,0.5-1.3,0.5-2.1l0,0c0-0.8-0.2-1.5-0.5-2.1c-0.3-0.6-0.8-1.1-1.4-1.5c-0.6-0.4-1.3-0.5-2.1-0.5
		l0,0c-0.8,0-1.5,0.2-2.1,0.5c-0.6,0.4-1.1,0.9-1.4,1.5s-0.5,1.3-0.5,2.1l0,0c0,0.8,0.2,1.5,0.5,2.1s0.8,1.1,1.4,1.5
		C-21.5-138.7-20.8-138.5-20-138.5z"/>
</g>
<g transform="matrix(0.09851992129804021 -0.01714132746983038 0.017141327469830377 0.09851992129804017 390.70610944757425 224.103916240184)">
	<path class="st0" d="M-666.5-1677.6c30,52,60,104,90,156c125,215,144,179-106,179c-60,0-120,0-180,0c-249,0-227,35-102-182
		c30-51,60-103,90-155C-750.5-1895.6-790.5-1893.6-666.5-1677.6z"/>
</g>
<g transform="matrix(0.06872321078201116 0.013308655071466318 -0.013308655071466318 0.06872321078201116 349.99283062831347 204.507712665674)">
	<path class="st1" d="M-1732.9-1818.9c30,52,60,104,90,156c125,215,144,179-106,179c-60,0-120,0-180,0c-249,0-227,35-102-182
		c30-51,60-103,90-155C-1816.9-2036.9-1856.9-2034.9-1732.9-1818.9z"/>
</g>
<g transform="matrix(-0.08208437014926445 -0.03690740003303596 0.03690740003303596 -0.08208437014926445 380.3644794093291 176.50836488645317)">
	<path class="st2" d="M1804.6,896.4c30,52,60,104,90,156c125,215,144,179-106,179c-60,0-120,0-180,0c-249,0-227,35-102-182
		c30-51,60-103,90-155C1720.6,678.4,1680.6,680.4,1804.6,896.4z"/>
</g>
</svg>
